<svg width="197" height="146" viewBox="0 0 197 146" fill="none" xmlns="http://www.w3.org/2000/svg">
<path d="M8.74141 92.8C7.67474 84.6667 6.60807 76.2 5.54141 67.4C4.60807 58.6 3.87474 49.9334 3.34141 41.4C2.80807 32.7334 2.54141 24.4667 2.54141 16.6V1.40004H32.3414V16.6C32.3414 24.7334 32.0081 33.2 31.3414 42C30.8081 50.8 30.0747 59.5334 29.1414 68.2C28.2081 76.8667 27.2081 85.0667 26.1414 92.8H8.74141ZM17.1414 145.2C11.9414 145.2 7.94141 143.733 5.14141 140.8C2.34141 137.867 0.941406 133.667 0.941406 128.2C0.941406 123.267 2.40807 119.267 5.34141 116.2C8.40807 113 12.3414 111.4 17.1414 111.4C22.2081 111.4 26.1414 112.867 28.9414 115.8C31.7414 118.733 33.1414 122.867 33.1414 128.2C33.1414 133.267 31.6747 137.4 28.7414 140.6C25.8081 143.667 21.9414 145.2 17.1414 145.2Z" fill="#5F3B92" fill-opacity="0.5"></path>
<path d="M85.168 97L78.968 70C83.368 68.9334 87.368 67.7334 90.968 66.4C94.7013 64.9334 98.0346 63.4 100.968 61.8C103.901 60.2 106.368 58.4 108.368 56.4C110.501 54.4 112.101 52.2 113.168 49.8C114.368 47.2667 114.968 44.6 114.968 41.8C114.968 38.8667 114.168 36.2667 112.568 34C110.968 31.6 108.835 29.8 106.168 28.6C103.501 27.2667 100.368 26.6 96.768 26.6C92.1013 26.6 87.4346 28.2667 82.768 31.6C78.2346 34.8 74.1013 39.8667 70.368 46.8L50.768 29C56.768 19.9334 63.8346 12.9334 71.968 8.00003C80.2346 2.93336 88.8346 0.400024 97.768 0.400024C106.435 0.400024 114.235 2.20003 121.168 5.80003C128.101 9.2667 133.568 14.0667 137.568 20.2C141.701 26.3334 143.768 33.2 143.768 40.8C143.768 45.6 142.768 50.3334 140.768 55C138.768 59.5334 135.968 63.8667 132.368 68C128.901 72 124.768 75.5334 119.968 78.6C115.168 81.6667 109.901 84.1334 104.168 86L101.768 97H85.168ZM77.968 128.2C77.968 123.267 79.4346 119.267 82.368 116.2C85.3013 113 89.168 111.4 93.968 111.4C99.168 111.4 103.168 112.867 105.968 115.8C108.768 118.733 110.168 122.867 110.168 128.2C110.168 133.267 108.635 137.4 105.568 140.6C102.635 143.667 98.768 145.2 93.968 145.2C88.9013 145.2 84.968 143.733 82.168 140.8C79.368 137.867 77.968 133.667 77.968 128.2Z" fill="#5F3B92" fill-opacity="0.5"></path>
<path d="M171.632 92.8C170.565 84.6667 169.499 76.2 168.432 67.4C167.499 58.6 166.765 49.9334 166.232 41.4C165.699 32.7334 165.432 24.4667 165.432 16.6V1.40004H195.232V16.6C195.232 24.7334 194.899 33.2 194.232 42C193.699 50.8 192.965 59.5334 192.032 68.2C191.099 76.8667 190.099 85.0667 189.032 92.8H171.632ZM180.032 145.2C174.832 145.2 170.832 143.733 168.032 140.8C165.232 137.867 163.832 133.667 163.832 128.2C163.832 123.267 165.299 119.267 168.232 116.2C171.299 113 175.232 111.4 180.032 111.4C185.099 111.4 189.032 112.867 191.832 115.8C194.632 118.733 196.032 122.867 196.032 128.2C196.032 133.267 194.565 137.4 191.632 140.6C188.699 143.667 184.832 145.2 180.032 145.2Z" fill="#5F3B92" fill-opacity="0.5"></path>
</svg>
