<svg xmlns="http://www.w3.org/2000/svg" xmlns:xlink="http://www.w3.org/1999/xlink" style="z-index: 1; background: #5f3b92; margin: auto; display: block; position: relative" width="1796" height="955" preserveAspectRatio="xMidYMid" viewBox="0 0 1796 955">
<g transform="translate(898,477.5) scale(1,1) translate(-898,-477.5)"><path id="path0" d="M 887.9138992792789 24.65555250905823
c 0 30.07325619435951 -7.358349919896475 8.63806294944369 -15.996412869340164 8.63806294944369
S 855.9210735405986 54.72880870341774 855.9210735405986 24.65555250905823
s 7.358349919896475 -8.63806294944369 15.996412869340164 -8.63806294944369
S 887.9138992792789 -5.41770368530128 887.9138992792789 24.65555250905823
z" fill="none" stroke="none"></path>
<circle cx="0" cy="0" r="6.304770066522573" fill="#5c388e" opacity="0.9">
  <animateMotion begin="-0.8680398112369837s" dur="13.040000000000001s" repeatCount="indefinite">
    <mpath xlink:href="#path0"></mpath>
  </animateMotion>
</circle><path id="path1" d="M 457.990722138842 906.7895107661475
c 0 20.26276260017417 -4.957909997914956 5.820155214943645 -10.7780652128586 5.820155214943645
S 436.43459171312475 927.0522733663216 436.43459171312475 906.7895107661475
s 4.957909997914956 -5.820155214943645 10.7780652128586 -5.820155214943645
S 457.990722138842 886.5267481659733 457.990722138842 906.7895107661475
z" fill="none" stroke="none"></path>
<circle cx="0" cy="0" r="7.2836816040089705" fill="#5c388e" opacity="0.9">
  <animateMotion begin="-6.065216696776948s" dur="13.040000000000001s" repeatCount="indefinite">
    <mpath xlink:href="#path1"></mpath>
  </animateMotion>
</circle><path id="path2" d="M 524.6337085259747 441.26849635590503
c 0 33.782017027229514 -8.265812676875306 9.703345316331882 -17.969157993207187 9.703345316331882
S 488.6953925395604 475.05051338313456 488.6953925395604 441.26849635590503
s 8.265812676875306 -9.703345316331882 17.969157993207187 -9.703345316331882
S 524.6337085259747 407.4864793286755 524.6337085259747 441.26849635590503
z" fill="none" stroke="none"></path>
<circle cx="0" cy="0" r="6.07186155696591" fill="#63488a" opacity="0.9">
  <animateMotion begin="-2.4053265151863608s" dur="13.040000000000001s" repeatCount="indefinite">
    <mpath xlink:href="#path2"></mpath>
  </animateMotion>
</circle><path id="path3" d="M 1565.3721871698729 814.8842769269778
c 0 23.27966931213704 -5.696089299778212 6.686713525826597 -12.38280282560481 6.686713525826597
S 1540.6065815186632 838.1639462391148 1540.6065815186632 814.8842769269778
s 5.696089299778212 -6.686713525826597 12.38280282560481 -6.686713525826597
S 1565.3721871698729 791.6046076148408 1565.3721871698729 814.8842769269778
z" fill="none" stroke="none"></path>
<circle cx="0" cy="0" r="7.796010915357298" fill="#5c388e" opacity="0.9">
  <animateMotion begin="-9.357402330375416s" dur="13.040000000000001s" repeatCount="indefinite">
    <mpath xlink:href="#path3"></mpath>
  </animateMotion>
</circle><path id="path4" d="M 734.9071967595551 415.2749314084962
c 0 29.197098276752097 -7.14397085494998 8.386400568854325 -15.530371423804306 8.386400568854325
S 703.8464539119464 444.4720296852483 703.8464539119464 415.2749314084962
s 7.14397085494998 -8.386400568854325 15.530371423804306 -8.386400568854325
S 734.9071967595551 386.07783313174406 734.9071967595551 415.2749314084962
z" fill="none" stroke="none"></path>
<circle cx="0" cy="0" r="7.5341838448381475" fill="#63488a" opacity="0.9">
  <animateMotion begin="-9.154731197375007s" dur="13.040000000000001s" repeatCount="indefinite">
    <mpath xlink:href="#path4"></mpath>
  </animateMotion>
</circle><path id="path5" d="M 1005.066305907675 936.8825477230628
c 0 35.966268261258264 -8.800257127754682 10.330736628233758 -19.130993755988438 10.330736628233758
S 966.804318395698 972.848815984321 966.804318395698 936.8825477230628
s 8.800257127754682 -10.330736628233758 19.130993755988438 -10.330736628233758
S 1005.066305907675 900.9162794618045 1005.066305907675 936.8825477230628
z" fill="none" stroke="none"></path>
<circle cx="0" cy="0" r="7.340165938275919" fill="#5c388e" opacity="0.9">
  <animateMotion begin="-4.657851297627663s" dur="13.040000000000001s" repeatCount="indefinite">
    <mpath xlink:href="#path5"></mpath>
  </animateMotion>
</circle><path id="path6" d="M 867.0408874400761 316.6196675225516
c 0 28.176878772757775 -6.894342678440731 8.093358796430424 -14.987701474871155 8.093358796430424
S 837.0654844903337 344.7965462953094 837.0654844903337 316.6196675225516
s 6.894342678440731 -8.093358796430424 14.987701474871155 -8.093358796430424
S 867.0408874400761 288.4427887497938 867.0408874400761 316.6196675225516
z" fill="none" stroke="none"></path>
<circle cx="0" cy="0" r="4.926184106963349" fill="#63488a" opacity="0.9">
  <animateMotion begin="-7.687626120090172s" dur="13.040000000000001s" repeatCount="indefinite">
    <mpath xlink:href="#path6"></mpath>
  </animateMotion>
</circle><path id="path7" d="M 49.14919097245115 804.4525021866773
c 0 27.784846397209435 -6.7984198631469885 7.980753752389945 -14.779173615536934 7.980753752389945
S 19.590843741377284 832.2373485838867 19.590843741377284 804.4525021866773
s 6.7984198631469885 -7.980753752389945 14.779173615536934 -7.980753752389945
S 49.14919097245115 776.6676557894679 49.14919097245115 804.4525021866773
z" fill="none" stroke="none"></path>
<circle cx="0" cy="0" r="6.487093549382528" fill="#5c388e" opacity="0.9">
  <animateMotion begin="-1.1923705739638726s" dur="13.040000000000001s" repeatCount="indefinite">
    <mpath xlink:href="#path7"></mpath>
  </animateMotion>
</circle><path id="path8" d="M 611.3626732034978 289.81810830538643
c 0 37.486218909913696 -9.172159946042711 10.767318197528402 -19.93947814357111 10.767318197528402
S 571.4837169163555 327.30432721530013 571.4837169163555 289.81810830538643
s 9.172159946042711 -10.767318197528402 19.93947814357111 -10.767318197528402
S 611.3626732034978 252.33188939547273 611.3626732034978 289.81810830538643
z" fill="none" stroke="none"></path>
<circle cx="0" cy="0" r="7.525035362783515" fill="#5c388e" opacity="0.9">
  <animateMotion begin="-5.910065747790145s" dur="13.040000000000001s" repeatCount="indefinite">
    <mpath xlink:href="#path8"></mpath>
  </animateMotion>
</circle><path id="path9" d="M 274.1658947791649 299.3749767911883
c 0 21.437405238339657 -5.24532255831715 6.157552568459264 -11.402875126776413 6.157552568459264
S 251.36014452561207 320.81238202952795 251.36014452561207 299.3749767911883
s 5.24532255831715 -6.157552568459264 11.402875126776413 -6.157552568459264
S 274.1658947791649 277.9375715528487 274.1658947791649 299.3749767911883
z" fill="none" stroke="none"></path>
<circle cx="0" cy="0" r="6.615282187544123" fill="#5c388e" opacity="0.9">
  <animateMotion begin="-7.618204596074776s" dur="13.040000000000001s" repeatCount="indefinite">
    <mpath xlink:href="#path9"></mpath>
  </animateMotion>
</circle><path id="path10" d="M 1081.466784838009 461.5068950846041
c 0 29.75820216814659 -7.281262232631612 8.547568707871893 -15.828830940503504 8.547568707871893
S 1049.8091229570023 491.26509725275065 1049.8091229570023 461.5068950846041
s 7.281262232631612 -8.547568707871893 15.828830940503504 -8.547568707871893
S 1081.466784838009 431.7486929164575 1081.466784838009 461.5068950846041
z" fill="none" stroke="none"></path>
<circle cx="0" cy="0" r="4.946718384325581" fill="#5c388e" opacity="0.9">
  <animateMotion begin="-5.594806239301144s" dur="13.040000000000001s" repeatCount="indefinite">
    <mpath xlink:href="#path10"></mpath>
  </animateMotion>
</circle><path id="path11" d="M 442.3335554163557 261.5463780851519
c 0 22.07662875885595 -5.4017283133370935 6.341159324352241 -11.742887637689334 6.341159324352241
S 418.8477801409771 283.6230068440079 418.8477801409771 261.5463780851519
s 5.4017283133370935 -6.341159324352241 11.742887637689334 -6.341159324352241
S 442.3335554163557 239.46974932629595 442.3335554163557 261.5463780851519
z" fill="none" stroke="none"></path>
<circle cx="0" cy="0" r="4.035303903271221" fill="#63488a" opacity="0.9">
  <animateMotion begin="-9.86914485917584s" dur="13.040000000000001s" repeatCount="indefinite">
    <mpath xlink:href="#path11"></mpath>
  </animateMotion>
</circle><path id="path12" d="M 874.8679957740313 272.6363880994522
c 0 27.256206858501308 -6.669071890909893 7.828910480633354 -14.497982371543248 7.828910480633354
S 845.8720310309449 299.89259495795346 845.8720310309449 272.6363880994522
s 6.669071890909893 -7.828910480633354 14.497982371543248 -7.828910480633354
S 874.8679957740313 245.38018124095086 874.8679957740313 272.6363880994522
z" fill="none" stroke="none"></path>
<circle cx="0" cy="0" r="4.577581396429844" fill="#63488a" opacity="0.9">
  <animateMotion begin="-12.386671152412896s" dur="13.040000000000001s" repeatCount="indefinite">
    <mpath xlink:href="#path12"></mpath>
  </animateMotion>
</circle><path id="path13" d="M 1734.5141840867498 822.7973706173404
c 0 34.27711061440165 -8.386952597140828 9.845553048817495 -18.232505645958323 9.845553048817495
S 1698.049172794833 857.0744812317421 1698.049172794833 822.7973706173404
s 8.386952597140828 -9.845553048817495 18.232505645958323 -9.845553048817495
S 1734.5141840867498 788.5202600029388 1734.5141840867498 822.7973706173404
z" fill="none" stroke="none"></path>
<circle cx="0" cy="0" r="4.649446393453558" fill="#63488a" opacity="0.9">
  <animateMotion begin="-6.044415506802704s" dur="13.040000000000001s" repeatCount="indefinite">
    <mpath xlink:href="#path13"></mpath>
  </animateMotion>
</circle><path id="path14" d="M 1276.6141687309487 89.94840392996277
c 0 28.51935949708526 -6.978141153542138 8.191730919375553 -15.169872072917691 8.191730919375553
S 1246.2744245851131 118.46776342704803 1246.2744245851131 89.94840392996277
s 6.978141153542138 -8.191730919375553 15.169872072917691 -8.191730919375553
S 1276.6141687309487 61.429044432877504 1276.6141687309487 89.94840392996277
z" fill="none" stroke="none"></path>
<circle cx="0" cy="0" r="5.5780784338394085" fill="#63488a" opacity="0.9">
  <animateMotion begin="-3.0929400148996136s" dur="13.040000000000001s" repeatCount="indefinite">
    <mpath xlink:href="#path14"></mpath>
  </animateMotion>
</circle><path id="path15" d="M 1471.9863056486063 146.6430301783099
c 0 30.2731090418125 -7.407250084698802 8.695467490733378 -16.10271757543218 8.695467490733378
S 1439.7808704977417 176.9161392201224 1439.7808704977417 146.6430301783099
s 7.407250084698802 -8.695467490733378 16.10271757543218 -8.695467490733378
S 1471.9863056486063 116.36992113649741 1471.9863056486063 146.6430301783099
z" fill="none" stroke="none"></path>
<circle cx="0" cy="0" r="6.195874076011613" fill="#5c388e" opacity="0.9">
  <animateMotion begin="-4.522902235209084s" dur="13.040000000000001s" repeatCount="indefinite">
    <mpath xlink:href="#path15"></mpath>
  </animateMotion>
</circle><path id="path16" d="M 1585.4345072073156 316.91873314200257
c 0 36.144818548848264 -8.843944964079894 10.382022349137268 -19.22596731321716 10.382022349137268
S 1546.9825725808814 353.06355169085083 1546.9825725808814 316.91873314200257
s 8.843944964079894 -10.382022349137268 19.22596731321716 -10.382022349137268
S 1585.4345072073156 280.7739145931543 1585.4345072073156 316.91873314200257
z" fill="none" stroke="none"></path>
<circle cx="0" cy="0" r="4.497346779730853" fill="#63488a" opacity="0.9">
  <animateMotion begin="-6.043939242008612s" dur="13.040000000000001s" repeatCount="indefinite">
    <mpath xlink:href="#path16"></mpath>
  </animateMotion>
</circle><path id="path17" d="M 915.566598360366 897.0952879009723
c 0 37.101884748054395 -9.078120736226074 10.656924342526262 -19.735045078752336 10.656924342526262
S 876.0965082028613 934.1971726490267 876.0965082028613 897.0952879009723
s 9.078120736226074 -10.656924342526262 19.735045078752336 -10.656924342526262
S 915.566598360366 859.9934031529178 915.566598360366 897.0952879009723
z" fill="none" stroke="none"></path>
<circle cx="0" cy="0" r="7.676490217174904" fill="#5c388e" opacity="0.9">
  <animateMotion begin="-3.258872522382456s" dur="13.040000000000001s" repeatCount="indefinite">
    <mpath xlink:href="#path17"></mpath>
  </animateMotion>
</circle><path id="path18" d="M 1001.6335853842878 936.6940226751611
c 0 21.151855491329353 -5.175454003197607 6.075532960275453 -11.25098696347306 6.075532960275453
S 979.1316114573416 957.8458781664905 979.1316114573416 936.6940226751611
s 5.175454003197607 -6.075532960275453 11.25098696347306 -6.075532960275453
S 1001.6335853842878 915.5421671838318 1001.6335853842878 936.6940226751611
z" fill="none" stroke="none"></path>
<circle cx="0" cy="0" r="7.774970765296497" fill="#5c388e" opacity="0.9">
  <animateMotion begin="-8.970797030109418s" dur="13.040000000000001s" repeatCount="indefinite">
    <mpath xlink:href="#path18"></mpath>
  </animateMotion>
</circle><path id="path19" d="M 626.9270803565563 221.97085225040993
c 0 21.76070443546572 -5.324427681018207 6.2504151038039835 -11.57484278482219 6.2504151038039835
S 603.7773947869119 243.73155668587566 603.7773947869119 221.97085225040993
s 5.324427681018207 -6.2504151038039835 11.57484278482219 -6.2504151038039835
S 626.9270803565563 200.2101478149442 626.9270803565563 221.97085225040993
z" fill="none" stroke="none"></path>
<circle cx="0" cy="0" r="7.228852067974599" fill="#63488a" opacity="0.9">
  <animateMotion begin="-0.04033344215920932s" dur="13.040000000000001s" repeatCount="indefinite">
    <mpath xlink:href="#path19"></mpath>
  </animateMotion>
</circle><path id="path20" d="M 1427.178976078147 780.8394631195258
c 0 28.173506937792766 -6.893517654991846 8.092390290642603 -14.985907945634448 8.092390290642603
S 1397.2071601868781 809.0129700573186 1397.2071601868781 780.8394631195258
s 6.893517654991846 -8.092390290642603 14.985907945634448 -8.092390290642603
S 1427.178976078147 752.665956181733 1427.178976078147 780.8394631195258
z" fill="none" stroke="none"></path>
<circle cx="0" cy="0" r="7.017875256409308" fill="#5c388e" opacity="0.9">
  <animateMotion begin="-7.10492871071716s" dur="13.040000000000001s" repeatCount="indefinite">
    <mpath xlink:href="#path20"></mpath>
  </animateMotion>
</circle><path id="path21" d="M 907.6413081241866 214.30239264459533
c 0 26.96669266361791 -6.598233311310763 7.745752148060463 -14.343985459371227 7.745752148060463
S 878.9533372054442 241.26908530821325 878.9533372054442 214.30239264459533
s 6.598233311310763 -7.745752148060463 14.343985459371227 -7.745752148060463
S 907.6413081241866 187.3356999809774 907.6413081241866 214.30239264459533
z" fill="none" stroke="none"></path>
<circle cx="0" cy="0" r="4.394777373189285" fill="#63488a" opacity="0.9">
  <animateMotion begin="-10.625899497513219s" dur="13.040000000000001s" repeatCount="indefinite">
    <mpath xlink:href="#path21"></mpath>
  </animateMotion>
</circle><path id="path22" d="M 736.9601887140567 699.5467068629231
c 0 28.793310188788645 -7.045171641937646 8.27041888401376 -15.315590525951405 8.27041888401376
S 706.3290076621539 728.3400170517117 706.3290076621539 699.5467068629231
s 7.045171641937646 -8.27041888401376 15.315590525951405 -8.27041888401376
S 736.9601887140567 670.7533966741345 736.9601887140567 699.5467068629231
z" fill="none" stroke="none"></path>
<circle cx="0" cy="0" r="4.618844943334754" fill="#5c388e" opacity="0.9">
  <animateMotion begin="-4.764736977234792s" dur="13.040000000000001s" repeatCount="indefinite">
    <mpath xlink:href="#path22"></mpath>
  </animateMotion>
</circle><path id="path23" d="M 513.2995017245929 102.19891887603619
c 0 28.316239929155106 -6.92844168479327 8.133388064757318 -15.061829749550588 8.133388064757318
S 483.1758422254917 130.5151588051913 483.1758422254917 102.19891887603619
s 6.92844168479327 -8.133388064757318 15.061829749550588 -8.133388064757318
S 513.2995017245929 73.88267894688109 513.2995017245929 102.19891887603619
z" fill="none" stroke="none"></path>
<circle cx="0" cy="0" r="4.912369673217824" fill="#63488a" opacity="0.9">
  <animateMotion begin="-8.353575891591602s" dur="13.040000000000001s" repeatCount="indefinite">
    <mpath xlink:href="#path23"></mpath>
  </animateMotion>
</circle><path id="path24" d="M 525.6142775052057 891.5674938096593
c 0 32.744660989200675 -8.011991518634208 9.405381347961896 -17.417372866596104 9.405381347961896
S 490.7795317720135 924.31215479886 490.7795317720135 891.5674938096593
s 8.011991518634208 -9.405381347961896 17.417372866596104 -9.405381347961896
S 525.6142775052057 858.8228328204585 525.6142775052057 891.5674938096593
z" fill="none" stroke="none"></path>
<circle cx="0" cy="0" r="4.630156528611001" fill="#5c388e" opacity="0.9">
  <animateMotion begin="-10.160891027889752s" dur="13.040000000000001s" repeatCount="indefinite">
    <mpath xlink:href="#path24"></mpath>
  </animateMotion>
</circle><path id="path25" d="M 917.2180336020922 525.757385658997
c 0 24.552768953861705 -6.007592403604459 7.052391082492192 -13.059983486096652 7.052391082492192
S 891.098066629899 550.3101546128587 891.098066629899 525.757385658997
s 6.007592403604459 -7.052391082492192 13.059983486096652 -7.052391082492192
S 917.2180336020922 501.2046167051353 917.2180336020922 525.757385658997
z" fill="none" stroke="none"></path>
<circle cx="0" cy="0" r="7.38151373183338" fill="#5c388e" opacity="0.9">
  <animateMotion begin="-0.3650531859712112s" dur="13.040000000000001s" repeatCount="indefinite">
    <mpath xlink:href="#path25"></mpath>
  </animateMotion>
</circle><path id="path26" d="M 1231.685362272771 148.1597805449126
c 0 25.777047293375585 -6.307149869655728 7.4040454991610725 -13.7111953688168 7.4040454991610725
S 1204.2629715351375 173.93682783828817 1204.2629715351375 148.1597805449126
s 6.307149869655728 -7.4040454991610725 13.7111953688168 -7.4040454991610725
S 1231.685362272771 122.382733251537 1231.685362272771 148.1597805449126
z" fill="none" stroke="none"></path>
<circle cx="0" cy="0" r="4.241275417966237" fill="#5c388e" opacity="0.9">
  <animateMotion begin="-1.508890666077065s" dur="13.040000000000001s" repeatCount="indefinite">
    <mpath xlink:href="#path26"></mpath>
  </animateMotion>
</circle><path id="path27" d="M 384.4305182103254 632.841147100217
c 0 28.533485092482294 -6.981597416245667 8.195788271244915 -15.177385687490581 8.195788271244915
S 354.0757468353442 661.3746321926992 354.0757468353442 632.841147100217
s 6.981597416245667 -8.195788271244915 15.177385687490581 -8.195788271244915
S 384.4305182103254 604.3076620077347 384.4305182103254 632.841147100217
z" fill="none" stroke="none"></path>
<circle cx="0" cy="0" r="5.710759699419273" fill="#5c388e" opacity="0.9">
  <animateMotion begin="-5.260753390445092s" dur="13.040000000000001s" repeatCount="indefinite">
    <mpath xlink:href="#path27"></mpath>
  </animateMotion>
</circle><path id="path28" d="M 644.4316194067635 612.976672097728
c 0 27.070542738672295 -6.623643436058114 7.775581424937787 -14.3992248609959 7.775581424937787
S 615.6331696847717 640.0472148364004 615.6331696847717 612.976672097728
s 6.623643436058114 -7.775581424937787 14.3992248609959 -7.775581424937787
S 644.4316194067635 585.9061293590557 644.4316194067635 612.976672097728
z" fill="none" stroke="none"></path>
<circle cx="0" cy="0" r="7.771311969102159" fill="#5c388e" opacity="0.9">
  <animateMotion begin="-4.255943592711055s" dur="13.040000000000001s" repeatCount="indefinite">
    <mpath xlink:href="#path28"></mpath>
  </animateMotion>
</circle><path id="path29" d="M 796.2158618765905 583.5153826802826
c 0 35.19919277403767 -8.612568444711343 10.110406435095927 -18.72297487980727 10.110406435095927
S 758.769912116976 618.7145754543203 758.769912116976 583.5153826802826
s 8.612568444711343 -10.110406435095927 18.72297487980727 -10.110406435095927
S 796.2158618765905 548.316189906245 796.2158618765905 583.5153826802826
z" fill="none" stroke="none"></path>
<circle cx="0" cy="0" r="7.459009472852636" fill="#5c388e" opacity="0.9">
  <animateMotion begin="-2.8939905455010493s" dur="13.040000000000001s" repeatCount="indefinite">
    <mpath xlink:href="#path29"></mpath>
  </animateMotion>
</circle><path id="path30" d="M 494.73230407570463 883.2957480400652
c 0 29.877044508514608 -7.310340677615275 8.58170427372228 -15.892044951337557 8.58170427372228
S 462.94821417302956 913.1727925485798 462.94821417302956 883.2957480400652
s 7.310340677615275 -8.58170427372228 15.892044951337557 -8.58170427372228
S 494.73230407570463 853.4187035315506 494.73230407570463 883.2957480400652
z" fill="none" stroke="none"></path>
<circle cx="0" cy="0" r="6.336350446505066" fill="#5c388e" opacity="0.9">
  <animateMotion begin="-1.675618894666506s" dur="13.040000000000001s" repeatCount="indefinite">
    <mpath xlink:href="#path30"></mpath>
  </animateMotion>
</circle><path id="path31" d="M 797.5846506207283 262.80176204583984
c 0 32.742193799349856 -8.011387844521773 9.4046726870473 -17.416060531569073 9.4046726870473
S 762.7525295575902 295.5439558451897 762.7525295575902 262.80176204583984
s 8.011387844521773 -9.4046726870473 17.416060531569073 -9.4046726870473
S 797.5846506207283 230.05956824649 797.5846506207283 262.80176204583984
z" fill="none" stroke="none"></path>
<circle cx="0" cy="0" r="4.698926700268685" fill="#63488a" opacity="0.9">
  <animateMotion begin="-1.713759052524682s" dur="13.040000000000001s" repeatCount="indefinite">
    <mpath xlink:href="#path31"></mpath>
  </animateMotion>
</circle><path id="path32" d="M 1586.4590820483118 9.14394254252085
c 0 25.26786900732752 -6.1825636932822645 7.257792161679181 -13.440355854961446 7.257792161679181
S 1559.578370338389 34.411811549848366 1559.578370338389 9.14394254252085
s 6.1825636932822645 -7.257792161679181 13.440355854961446 -7.257792161679181
S 1586.4590820483118 -16.12392646480667 1586.4590820483118 9.14394254252085
z" fill="none" stroke="none"></path>
<circle cx="0" cy="0" r="6.531993381221491" fill="#63488a" opacity="0.9">
  <animateMotion begin="-1.6453688459152152s" dur="13.040000000000001s" repeatCount="indefinite">
    <mpath xlink:href="#path32"></mpath>
  </animateMotion>
</circle><path id="path33" d="M 693.3005959384141 457.25049057585517
c 0 36.27151182289078 -8.874944382196679 10.418412970404798 -19.293357352601475 10.418412970404798
S 654.7138812332112 493.52200239874594 654.7138812332112 457.25049057585517
s 8.874944382196679 -10.418412970404798 19.293357352601475 -10.418412970404798
S 693.3005959384141 420.9789787529644 693.3005959384141 457.25049057585517
z" fill="none" stroke="none"></path>
<circle cx="0" cy="0" r="6.621431435737343" fill="#5c388e" opacity="0.9">
  <animateMotion begin="-12.039920640892081s" dur="13.040000000000001s" repeatCount="indefinite">
    <mpath xlink:href="#path33"></mpath>
  </animateMotion>
</circle><path id="path34" d="M 1082.5433354065947 936.3042086740378
c 0 24.234414163547072 -5.929697082570028 6.960948749103947 -12.890645831673975 6.960948749103947
S 1056.7620437432467 960.5386228375849 1056.7620437432467 936.3042086740378
s 5.929697082570028 -6.960948749103947 12.890645831673975 -6.960948749103947
S 1082.5433354065947 912.0697945104907 1082.5433354065947 936.3042086740378
z" fill="none" stroke="none"></path>
<circle cx="0" cy="0" r="7.9061728629334365" fill="#63488a" opacity="0.9">
  <animateMotion begin="-7.276271275799405s" dur="13.040000000000001s" repeatCount="indefinite">
    <mpath xlink:href="#path34"></mpath>
  </animateMotion>
</circle><path id="path35" d="M 1151.472855948763 293.9113283906737
c 0 28.64630628237992 -7.0092026010078525 8.22819435770487 -15.237396958712724 8.22819435770487
S 1120.9980620313377 322.5576346730536 1120.9980620313377 293.9113283906737
s 7.0092026010078525 -8.22819435770487 15.237396958712724 -8.22819435770487
S 1151.472855948763 265.2650221082938 1151.472855948763 293.9113283906737
z" fill="none" stroke="none"></path>
<circle cx="0" cy="0" r="5.14034974518778" fill="#5c388e" opacity="0.9">
  <animateMotion begin="-7.384223654857433s" dur="13.040000000000001s" repeatCount="indefinite">
    <mpath xlink:href="#path35"></mpath>
  </animateMotion>
</circle><path id="path36" d="M 852.1100163454445 791.1006968940453
c 0 29.828917443665734 -7.298564906428849 8.567880542329519 -15.866445448758368 8.567880542329519
S 820.3771254479278 820.9296143377111 820.3771254479278 791.1006968940453
s 7.298564906428849 -8.567880542329519 15.866445448758368 -8.567880542329519
S 852.1100163454445 761.2717794503795 852.1100163454445 791.1006968940453
z" fill="none" stroke="none"></path>
<circle cx="0" cy="0" r="5.133649753027957" fill="#63488a" opacity="0.9">
  <animateMotion begin="-3.6558069633293706s" dur="13.040000000000001s" repeatCount="indefinite">
    <mpath xlink:href="#path36"></mpath>
  </animateMotion>
</circle><path id="path37" d="M 1108.4577099703215 837.8303293972398
c 0 36.930168802984795 -9.036105132645215 10.607601677453081 -19.643706810098294 10.607601677453081
S 1069.1702963501248 874.7604982002246 1069.1702963501248 837.8303293972398
s 9.036105132645215 -10.607601677453081 19.643706810098294 -10.607601677453081
S 1108.4577099703215 800.900160594255 1108.4577099703215 837.8303293972398
z" fill="none" stroke="none"></path>
<circle cx="0" cy="0" r="6.386040091970056" fill="#63488a" opacity="0.9">
  <animateMotion begin="-8.057915006803464s" dur="13.040000000000001s" repeatCount="indefinite">
    <mpath xlink:href="#path37"></mpath>
  </animateMotion>
</circle><path id="path38" d="M 1414.0713906285991 396.7785061714951
c 0 25.069078279854644 -6.133923408900603 7.200692697405057 -13.334616106305662 7.200692697405057
S 1387.4021584159877 421.84758445134975 1387.4021584159877 396.7785061714951
s 6.133923408900603 -7.200692697405057 13.334616106305662 -7.200692697405057
S 1414.0713906285991 371.7094278916405 1414.0713906285991 396.7785061714951
z" fill="none" stroke="none"></path>
<circle cx="0" cy="0" r="5.640022476810822" fill="#5c388e" opacity="0.9">
  <animateMotion begin="-10.829888692070517s" dur="13.040000000000001s" repeatCount="indefinite">
    <mpath xlink:href="#path38"></mpath>
  </animateMotion>
</circle><path id="path39" d="M 665.4484080799716 207.75306922734813
c 0 21.229246848999225 -5.194390186457256 6.09776239279765 -11.292152579254907 6.09776239279765
S 642.8641029214618 228.98231607634736 642.8641029214618 207.75306922734813
s 5.194390186457256 -6.09776239279765 11.292152579254907 -6.09776239279765
S 665.4484080799716 186.5238223783489 665.4484080799716 207.75306922734813
z" fill="none" stroke="none"></path>
<circle cx="0" cy="0" r="6.029850440839822" fill="#5c388e" opacity="0.9">
  <animateMotion begin="-5.972317912340542s" dur="13.040000000000001s" repeatCount="indefinite">
    <mpath xlink:href="#path39"></mpath>
  </animateMotion>
</circle><path id="path40" d="M 581.234525397479 164.77569386268826
c 0 19.930630737281284 -4.876643691036909 5.724755637304199 -10.601399328341108 5.724755637304199
S 560.0317267407968 184.70632459996955 560.0317267407968 164.77569386268826
s 4.876643691036909 -5.724755637304199 10.601399328341108 -5.724755637304199
S 581.234525397479 144.84506312540697 581.234525397479 164.77569386268826
z" fill="none" stroke="none"></path>
<circle cx="0" cy="0" r="5.8156319271485195" fill="#5c388e" opacity="0.9">
  <animateMotion begin="-5.200871571996255s" dur="13.040000000000001s" repeatCount="indefinite">
    <mpath xlink:href="#path40"></mpath>
  </animateMotion>
</circle><path id="path41" d="M 1326.4015693162714 118.69759741045443
c 0 37.4768276231877 -9.169862078014011 10.764620700277318 -19.93448277829133 10.764620700277318
S 1286.5326037596888 156.17442503364214 1286.5326037596888 118.69759741045443
s 9.169862078014011 -10.764620700277318 19.93448277829133 -10.764620700277318
S 1326.4015693162714 81.22076978726673 1326.4015693162714 118.69759741045443
z" fill="none" stroke="none"></path>
<circle cx="0" cy="0" r="5.873922474088002" fill="#63488a" opacity="0.9">
  <animateMotion begin="-1.2956927166381724s" dur="13.040000000000001s" repeatCount="indefinite">
    <mpath xlink:href="#path41"></mpath>
  </animateMotion>
</circle><path id="path42" d="M 1554.3587174383788 861.164698311926
c 0 22.437374722174695 -5.489995942659766 6.44477784573103 -11.934773788390796 6.44477784573103
S 1530.489169861597 883.6020730341007 1530.489169861597 861.164698311926
s 5.489995942659766 -6.44477784573103 11.934773788390796 -6.44477784573103
S 1554.3587174383788 838.7273235897513 1554.3587174383788 861.164698311926
z" fill="none" stroke="none"></path>
<circle cx="0" cy="0" r="5.92294754410745" fill="#63488a" opacity="0.9">
  <animateMotion begin="-4.965295307498626s" dur="13.040000000000001s" repeatCount="indefinite">
    <mpath xlink:href="#path42"></mpath>
  </animateMotion>
</circle><path id="path43" d="M 1531.3622153662911 16.719904532499385
c 0 28.492734113167476 -6.971626431945232 8.184083202718318 -15.15570963466355 8.184083202718318
S 1501.0507960969642 45.21263864566686 1501.0507960969642 16.719904532499385
s 6.971626431945232 -8.184083202718318 15.15570963466355 -8.184083202718318
S 1531.3622153662911 -11.772829580668091 1531.3622153662911 16.719904532499385
z" fill="none" stroke="none"></path>
<circle cx="0" cy="0" r="5.845459916096651" fill="#5c388e" opacity="0.9">
  <animateMotion begin="-3.4026595033068507s" dur="13.040000000000001s" repeatCount="indefinite">
    <mpath xlink:href="#path43"></mpath>
  </animateMotion>
</circle><path id="path44" d="M 415.273980332446 441.85732700856425
c 0 36.8936642020943 -9.027173155831584 10.597116313367511 -19.624289469199095 10.597116313367511
S 376.02540139404783 478.7509912106585 376.02540139404783 441.85732700856425
s 9.027173155831584 -10.597116313367511 19.624289469199095 -10.597116313367511
S 415.273980332446 404.96366280647 415.273980332446 441.85732700856425
z" fill="none" stroke="none"></path>
<circle cx="0" cy="0" r="4.727351593181176" fill="#5c388e" opacity="0.9">
  <animateMotion begin="-6.758116323634303s" dur="13.040000000000001s" repeatCount="indefinite">
    <mpath xlink:href="#path44"></mpath>
  </animateMotion>
</circle><path id="path45" d="M 1197.0874136659497 812.6470038608362
c 0 33.21149405855995 -8.126216631349774 9.539471697671475 -17.665688329021247 9.539471697671475
S 1161.756037007907 845.8584979193962 1161.756037007907 812.6470038608362
s 8.126216631349774 -9.539471697671475 17.665688329021247 -9.539471697671475
S 1197.0874136659497 779.4355098022762 1197.0874136659497 812.6470038608362
z" fill="none" stroke="none"></path>
<circle cx="0" cy="0" r="4.164427593278753" fill="#63488a" opacity="0.9">
  <animateMotion begin="-0.7977303863523615s" dur="13.040000000000001s" repeatCount="indefinite">
    <mpath xlink:href="#path45"></mpath>
  </animateMotion>
</circle><path id="path46" d="M 1777.3083154708354 265.45377175205164
c 0 20.384903204728655 -4.987795464986798 5.85523815454972 -10.843033619536516 5.85523815454972
S 1755.6222482317623 285.83867495678027 1755.6222482317623 265.45377175205164
s 4.987795464986798 -5.85523815454972 10.843033619536516 -5.85523815454972
S 1777.3083154708354 245.06886854732298 1777.3083154708354 265.45377175205164
z" fill="none" stroke="none"></path>
<circle cx="0" cy="0" r="7.64334325350183" fill="#5c388e" opacity="0.9">
  <animateMotion begin="-10.970049151161355s" dur="13.040000000000001s" repeatCount="indefinite">
    <mpath xlink:href="#path46"></mpath>
  </animateMotion>
</circle><path id="path47" d="M 465.07701427640836 928.0487263984976
c 0 23.469100687567092 -5.742439529936628 6.7411246655777814 -12.48356419551441 6.7411246655777814
S 440.1098858853795 951.5178270860647 440.1098858853795 928.0487263984976
s 5.742439529936628 -6.7411246655777814 12.48356419551441 -6.7411246655777814
S 465.07701427640836 904.5796257109305 465.07701427640836 928.0487263984976
z" fill="none" stroke="none"></path>
<circle cx="0" cy="0" r="6.3468578349143625" fill="#63488a" opacity="0.9">
  <animateMotion begin="-0.6831462337591622s" dur="13.040000000000001s" repeatCount="indefinite">
    <mpath xlink:href="#path47"></mpath>
  </animateMotion>
</circle><path id="path48" d="M 1443.4598330605297 117.1381677966426
c 0 31.995381908285594 -7.82865727543158 9.190162888550118 -17.018820163981697 9.190162888550118
S 1409.4221927325664 149.1335497049282 1409.4221927325664 117.1381677966426
s 7.82865727543158 -9.190162888550118 17.018820163981697 -9.190162888550118
S 1443.4598330605297 85.14278588835701 1443.4598330605297 117.1381677966426
z" fill="none" stroke="none"></path>
<circle cx="0" cy="0" r="7.004546361044022" fill="#63488a" opacity="0.9">
  <animateMotion begin="-0.7020117375364601s" dur="13.040000000000001s" repeatCount="indefinite">
    <mpath xlink:href="#path48"></mpath>
  </animateMotion>
</circle><path id="path49" d="M 1284.4136269702562 234.59653208507046
c 0 20.983403620717517 -5.134237056133009 6.027147848503968 -11.161384904636977 6.027147848503968
S 1262.090857160982 255.579935705788 1262.090857160982 234.59653208507046
s 5.134237056133009 -6.027147848503968 11.161384904636977 -6.027147848503968
S 1284.4136269702562 213.61312846435294 1284.4136269702562 234.59653208507046
z" fill="none" stroke="none"></path>
<circle cx="0" cy="0" r="6.658294079616678" fill="#63488a" opacity="0.9">
  <animateMotion begin="-7.393915291477015s" dur="13.040000000000001s" repeatCount="indefinite">
    <mpath xlink:href="#path49"></mpath>
  </animateMotion>
</circle><path id="path50" d="M 562.6185162763628 17.449763870697993
c 0 27.323253333224844 -6.685476879406078 7.848168510607136 -14.533645390013215 7.848168510607136
S 533.5512254963363 44.773017203922834 533.5512254963363 17.449763870697993
s 6.685476879406078 -7.848168510607136 14.533645390013215 -7.848168510607136
S 562.6185162763628 -9.873489462526852 562.6185162763628 17.449763870697993
z" fill="none" stroke="none"></path>
<circle cx="0" cy="0" r="4.796250773484744" fill="#5c388e" opacity="0.9">
  <animateMotion begin="-5.986748725688743s" dur="13.040000000000001s" repeatCount="indefinite">
    <mpath xlink:href="#path50"></mpath>
  </animateMotion>
</circle><path id="path51" d="M 1117.0310039766086 855.1806844549232
c 0 34.347048981422994 -8.404065176305625 9.865641728706604 -18.269706905012228 9.865641728706604
S 1080.491590166584 889.5277334363461 1080.491590166584 855.1806844549232
s 8.404065176305625 -9.865641728706604 18.269706905012228 -9.865641728706604
S 1117.0310039766086 820.8336354735002 1117.0310039766086 855.1806844549232
z" fill="none" stroke="none"></path>
<circle cx="0" cy="0" r="7.2583459673195625" fill="#63488a" opacity="0.9">
  <animateMotion begin="-10.12413239705409s" dur="13.040000000000001s" repeatCount="indefinite">
    <mpath xlink:href="#path51"></mpath>
  </animateMotion>
</circle><path id="path52" d="M 1607.0600203741315 913.3637693238471
c 0 32.410238049603734 -7.930164629158359 9.309323695098945 -17.239488324257305 9.309323695098945
S 1572.5810437256168 945.7740073734509 1572.5810437256168 913.3637693238471
s 7.930164629158359 -9.309323695098945 17.239488324257305 -9.309323695098945
S 1607.0600203741315 880.9535312742433 1607.0600203741315 913.3637693238471
z" fill="none" stroke="none"></path>
<circle cx="0" cy="0" r="7.938139337944028" fill="#5c388e" opacity="0.9">
  <animateMotion begin="-1.6617911803291312s" dur="13.040000000000001s" repeatCount="indefinite">
    <mpath xlink:href="#path52"></mpath>
  </animateMotion>
</circle><path id="path53" d="M 469.0146567505748 750.0963673151186
c 0 24.85118878178417 -6.0806100210748495 7.138107416044389 -13.218717437119238 7.138107416044389
S 442.57722187633624 774.9475560969028 442.57722187633624 750.0963673151186
s 6.0806100210748495 -7.138107416044389 13.218717437119238 -7.138107416044389
S 469.0146567505748 725.2451785333345 469.0146567505748 750.0963673151186
z" fill="none" stroke="none"></path>
<circle cx="0" cy="0" r="4.049863733700607" fill="#63488a" opacity="0.9">
  <animateMotion begin="-0.43474476344341556s" dur="13.040000000000001s" repeatCount="indefinite">
    <mpath xlink:href="#path53"></mpath>
  </animateMotion>
</circle><path id="path54" d="M 779.3962310730312 789.290639025005
c 0 19.120408042261158 -4.678397712468155 5.492032097245226 -10.170429809713381 5.492032097245226
S 759.0553714536045 808.4110470672662 759.0553714536045 789.290639025005
s 4.678397712468155 -5.492032097245226 10.170429809713381 -5.492032097245226
S 779.3962310730312 770.1702309827439 779.3962310730312 789.290639025005
z" fill="none" stroke="none"></path>
<circle cx="0" cy="0" r="4.378438925250113" fill="#63488a" opacity="0.9">
  <animateMotion begin="-3.1969880486970976s" dur="13.040000000000001s" repeatCount="indefinite">
    <mpath xlink:href="#path54"></mpath>
  </animateMotion>
</circle><path id="path55" d="M 266.4138042254901 515.6460710810516
c 0 24.080536175254895 -5.892046085434707 6.916749752466831 -12.808795837901538 6.916749752466831
S 240.796212549687 539.7266072563065 240.796212549687 515.6460710810516
s 5.892046085434707 -6.916749752466831 12.808795837901538 -6.916749752466831
S 266.4138042254901 491.56553490579665 266.4138042254901 515.6460710810516
z" fill="none" stroke="none"></path>
<circle cx="0" cy="0" r="6.852460583199087" fill="#5c388e" opacity="0.9">
  <animateMotion begin="-9.973801918516918s" dur="13.040000000000001s" repeatCount="indefinite">
    <mpath xlink:href="#path55"></mpath>
  </animateMotion>
</circle><path id="path56" d="M 814.3873653652537 659.0765991561733
c 0 27.797566633736423 -6.8015322614461455 7.984407437349824 -14.78593969879597 7.984407437349824
S 784.8154859676619 686.8741657899097 784.8154859676619 659.0765991561733
s 6.8015322614461455 -7.984407437349824 14.78593969879597 -7.984407437349824
S 814.3873653652537 631.2790325224369 814.3873653652537 659.0765991561733
z" fill="none" stroke="none"></path>
<circle cx="0" cy="0" r="6.930413606538066" fill="#5c388e" opacity="0.9">
  <animateMotion begin="-3.340963242089826s" dur="13.040000000000001s" repeatCount="indefinite">
    <mpath xlink:href="#path56"></mpath>
  </animateMotion>
</circle><path id="path57" d="M 906.2421479128785 796.6435243659006
c 0 21.86345102932825 -5.349567805048401 6.279927423317688 -11.629495228366089 6.279927423317688
S 882.9831574561464 818.5069753952289 882.9831574561464 796.6435243659006
s 5.349567805048401 -6.279927423317688 11.629495228366089 -6.279927423317688
S 906.2421479128785 774.7800733365723 906.2421479128785 796.6435243659006
z" fill="none" stroke="none"></path>
<circle cx="0" cy="0" r="7.913389473651717" fill="#63488a" opacity="0.9">
  <animateMotion begin="-0.219428074657964s" dur="13.040000000000001s" repeatCount="indefinite">
    <mpath xlink:href="#path57"></mpath>
  </animateMotion>
</circle><path id="path58" d="M 698.0588819190132 784.0641694051401
c 0 31.42534154864411 -7.68917931509377 9.026427891631819 -16.71560720672559 9.026427891631819
S 664.6276675055619 815.4895109537842 664.6276675055619 784.0641694051401
s 7.68917931509377 -9.026427891631819 16.71560720672559 -9.026427891631819
S 698.0588819190132 752.6388278564959 698.0588819190132 784.0641694051401
z" fill="none" stroke="none"></path>
<circle cx="0" cy="0" r="4.800989919691494" fill="#5c388e" opacity="0.9">
  <animateMotion begin="-4.133476595201899s" dur="13.040000000000001s" repeatCount="indefinite">
    <mpath xlink:href="#path58"></mpath>
  </animateMotion>
</circle><path id="path59" d="M 411.8539010272417 607.4979957555533
c 0 19.792252589705495 -4.8427852081194285 5.685008722574983 -10.527793930694411 5.685008722574983
S 390.79831316585285 627.2902483452589 390.79831316585285 607.4979957555533
s 4.8427852081194285 -5.685008722574983 10.527793930694411 -5.685008722574983
S 411.8539010272417 587.7057431658478 411.8539010272417 607.4979957555533
z" fill="none" stroke="none"></path>
<circle cx="0" cy="0" r="5.110221245099126" fill="#63488a" opacity="0.9">
  <animateMotion begin="-3.926138761812461s" dur="13.040000000000001s" repeatCount="indefinite">
    <mpath xlink:href="#path59"></mpath>
  </animateMotion>
</circle><path id="path60" d="M 1621.134967932301 710.8051499972834
c 0 27.158481868855237 -6.645160457273089 7.800840536798845 -14.446000994071934 7.800840536798845
S 1592.242965944157 737.9636318661386 1592.242965944157 710.8051499972834
s 6.645160457273089 -7.800840536798845 14.446000994071934 -7.800840536798845
S 1621.134967932301 683.6466681284281 1621.134967932301 710.8051499972834
z" fill="none" stroke="none"></path>
<circle cx="0" cy="0" r="5.415766097790465" fill="#5c388e" opacity="0.9">
  <animateMotion begin="-12.852683516824994s" dur="13.040000000000001s" repeatCount="indefinite">
    <mpath xlink:href="#path60"></mpath>
  </animateMotion>
</circle><path id="path61" d="M 898.2123887998604 799.4047245231966
c 0 33.09477100173213 -8.09765673446637 9.505944862199653 -17.603601596666024 9.505944862199653
S 863.0051856065282 832.4994955249288 863.0051856065282 799.4047245231966
s 8.09765673446637 -9.505944862199653 17.603601596666024 -9.505944862199653
S 898.2123887998604 766.3099535214644 898.2123887998604 799.4047245231966
z" fill="none" stroke="none"></path>
<circle cx="0" cy="0" r="5.073103709539583" fill="#5c388e" opacity="0.9">
  <animateMotion begin="-8.633306240219664s" dur="13.040000000000001s" repeatCount="indefinite">
    <mpath xlink:href="#path61"></mpath>
  </animateMotion>
</circle><path id="path62" d="M 1156.2716772726735 94.91323499311011
c 0 35.804698270735024 -8.760724044967079 10.284328226700485 -19.045052271667565 10.284328226700485
S 1118.1815727293383 130.71793326384514 1118.1815727293383 94.91323499311011
s 8.760724044967079 -10.284328226700485 19.045052271667565 -10.284328226700485
S 1156.2716772726735 59.108536722375085 1156.2716772726735 94.91323499311011
z" fill="none" stroke="none"></path>
<circle cx="0" cy="0" r="5.798779746710154" fill="#63488a" opacity="0.9">
  <animateMotion begin="-10.831772685805644s" dur="13.040000000000001s" repeatCount="indefinite">
    <mpath xlink:href="#path62"></mpath>
  </animateMotion>
</circle><path id="path63" d="M 777.7208491280838 25.51020287668191
c 0 36.38657270480755 -8.903097576708229 10.451462372657486 -19.354559949365715 10.451462372657486
S 739.0117292293525 61.89677558148946 739.0117292293525 25.51020287668191
s 8.903097576708229 -10.451462372657486 19.354559949365715 -10.451462372657486
S 777.7208491280838 -10.87636982812564 777.7208491280838 25.51020287668191
z" fill="none" stroke="none"></path>
<circle cx="0" cy="0" r="4.2629628417675995" fill="#63488a" opacity="0.9">
  <animateMotion begin="-8.18750793447805s" dur="13.040000000000001s" repeatCount="indefinite">
    <mpath xlink:href="#path63"></mpath>
  </animateMotion>
</circle><path id="path64" d="M 779.1867904080458 735.7610682461474
c 0 23.051271733639453 -5.640204785890504 6.621109966045375 -12.26131475193588 6.621109966045375
S 754.6641609041741 758.8123399797869 754.6641609041741 735.7610682461474
s 5.640204785890504 -6.621109966045375 12.26131475193588 -6.621109966045375
S 779.1867904080458 712.7097965125079 779.1867904080458 735.7610682461474
z" fill="none" stroke="none"></path>
<circle cx="0" cy="0" r="7.728352030136765" fill="#5c388e" opacity="0.9">
  <animateMotion begin="-2.155085451834301s" dur="13.040000000000001s" repeatCount="indefinite">
    <mpath xlink:href="#path64"></mpath>
  </animateMotion>
</circle><path id="path65" d="M 1207.8030562145673 888.1172474038256
c 0 33.5836556143102 -8.217277437543984 9.646369165812505 -17.86364660335649 9.646369165812505
S 1172.0757630078542 921.7009030181357 1172.0757630078542 888.1172474038256
s 8.217277437543984 -9.646369165812505 17.86364660335649 -9.646369165812505
S 1207.8030562145673 854.5335917895154 1207.8030562145673 888.1172474038256
z" fill="none" stroke="none"></path>
<circle cx="0" cy="0" r="7.423970572956677" fill="#63488a" opacity="0.9">
  <animateMotion begin="-7.472351287116107s" dur="13.040000000000001s" repeatCount="indefinite">
    <mpath xlink:href="#path65"></mpath>
  </animateMotion>
</circle><path id="path66" d="M 1284.0452117866555 557.6490600163477
c 0 19.87156311488901 -4.862190974919651 5.707789405340461 -10.56998038026011 5.707789405340461
S 1262.9052510261351 577.5206231312367 1262.9052510261351 557.6490600163477
s 4.862190974919651 -5.707789405340461 10.56998038026011 -5.707789405340461
S 1284.0452117866555 537.7774969014587 1284.0452117866555 557.6490600163477
z" fill="none" stroke="none"></path>
<circle cx="0" cy="0" r="6.943629174912304" fill="#63488a" opacity="0.9">
  <animateMotion begin="-6.847872303845198s" dur="13.040000000000001s" repeatCount="indefinite">
    <mpath xlink:href="#path66"></mpath>
  </animateMotion>
</circle><path id="path67" d="M 1385.233506533354 178.92558319378497
c 0 19.996822811766968 -4.892839624155747 5.743768254443704 -10.63660787859945 5.743768254443704
S 1363.960290776155 198.92240600555195 1363.960290776155 178.92558319378497
s 4.892839624155747 -5.743768254443704 10.63660787859945 -5.743768254443704
S 1385.233506533354 158.928760382018 1385.233506533354 178.92558319378497
z" fill="none" stroke="none"></path>
<circle cx="0" cy="0" r="7.457739549725929" fill="#63488a" opacity="0.9">
  <animateMotion begin="-12.182069704502076s" dur="13.040000000000001s" repeatCount="indefinite">
    <mpath xlink:href="#path67"></mpath>
  </animateMotion>
</circle><path id="path68" d="M 1762.6495216881476 111.91219548565032
c 0 28.682904332842103 -7.018157443142216 8.23870656368869 -15.256864006830906 8.23870656368869
S 1732.1357936744857 140.59509981849243 1732.1357936744857 111.91219548565032
s 7.018157443142216 -8.23870656368869 15.256864006830906 -8.23870656368869
S 1762.6495216881476 83.22929115280822 1762.6495216881476 111.91219548565032
z" fill="none" stroke="none"></path>
<circle cx="0" cy="0" r="7.686010539978591" fill="#5c388e" opacity="0.9">
  <animateMotion begin="-12.14721807573872s" dur="13.040000000000001s" repeatCount="indefinite">
    <mpath xlink:href="#path68"></mpath>
  </animateMotion>
</circle><path id="path69" d="M 1229.43588212464 83.48967087242791
c 0 36.781366493201126 -8.999696056847082 10.564860588472664 -19.564556645319747 10.564860588472664
S 1190.3067688340006 120.27103736562904 1190.3067688340006 83.48967087242791
s 8.999696056847082 -10.564860588472664 19.564556645319747 -10.564860588472664
S 1229.43588212464 46.70830437922678 1229.43588212464 83.48967087242791
z" fill="none" stroke="none"></path>
<circle cx="0" cy="0" r="7.650112693337713" fill="#63488a" opacity="0.9">
  <animateMotion begin="-9.14959565705385s" dur="13.040000000000001s" repeatCount="indefinite">
    <mpath xlink:href="#path69"></mpath>
  </animateMotion>
</circle><path id="path70" d="M 263.9645829748342 868.9909881430489
c 0 35.66129579745919 -8.72563620576129 10.243138154589342 -18.968774360350633 10.243138154589342
S 226.02703425413293 904.652283940508 226.02703425413293 868.9909881430489
s 8.72563620576129 -10.243138154589342 18.968774360350633 -10.243138154589342
S 263.9645829748342 833.3296923455897 263.9645829748342 868.9909881430489
z" fill="none" stroke="none"></path>
<circle cx="0" cy="0" r="7.314754374600865" fill="#63488a" opacity="0.9">
  <animateMotion begin="-1.7736844087178394s" dur="13.040000000000001s" repeatCount="indefinite">
    <mpath xlink:href="#path70"></mpath>
  </animateMotion>
</circle><path id="path71" d="M 1348.7348438700424 604.069086002355
c 0 20.603414007015115 -5.041260874056889 5.918001895632002 -10.959262769688891 5.918001895632002
S 1326.8163183306647 624.6725000093701 1326.8163183306647 604.069086002355
s 5.041260874056889 -5.918001895632002 10.959262769688891 -5.918001895632002
S 1348.7348438700424 583.4656719953399 1348.7348438700424 604.069086002355
z" fill="none" stroke="none"></path>
<circle cx="0" cy="0" r="5.150333090512957" fill="#63488a" opacity="0.9">
  <animateMotion begin="-1.2828048783001345s" dur="13.040000000000001s" repeatCount="indefinite">
    <mpath xlink:href="#path71"></mpath>
  </animateMotion>
</circle><path id="path72" d="M 356.735572057528 690.2545168450267
c 0 26.260692329536827 -6.425488548716457 7.54296481805845 -13.968453366774906 7.54296481805845
S 328.7986653239782 716.5152091745636 328.7986653239782 690.2545168450267
s 6.425488548716457 -7.54296481805845 13.968453366774906 -7.54296481805845
S 356.735572057528 663.9938245154899 356.735572057528 690.2545168450267
z" fill="none" stroke="none"></path>
<circle cx="0" cy="0" r="5.460478249034521" fill="#5c388e" opacity="0.9">
  <animateMotion begin="-8.811673189202306s" dur="13.040000000000001s" repeatCount="indefinite">
    <mpath xlink:href="#path72"></mpath>
  </animateMotion>
</circle><path id="path73" d="M 850.0661928003207 878.1672075352801
c 0 24.197823959399823 -5.920744160278679 6.950438796848886 -12.871182957127566 6.950438796848886
S 824.3238268860656 902.3650314946799 824.3238268860656 878.1672075352801
s 5.920744160278679 -6.950438796848886 12.871182957127566 -6.950438796848886
S 850.0661928003207 853.9693835758803 850.0661928003207 878.1672075352801
z" fill="none" stroke="none"></path>
<circle cx="0" cy="0" r="7.824032632730198" fill="#5c388e" opacity="0.9">
  <animateMotion begin="-10.324233355464141s" dur="13.040000000000001s" repeatCount="indefinite">
    <mpath xlink:href="#path73"></mpath>
  </animateMotion>
</circle><path id="path74" d="M 225.3811553437632 369.8075336985914
c 0 20.181553576256473 -4.938039704828711 5.796829218711966 -10.734868923540677 5.796829218711966
S 203.91141749668182 389.98908727484786 203.91141749668182 369.8075336985914
s 4.938039704828711 -5.796829218711966 10.734868923540677 -5.796829218711966
S 225.3811553437632 349.6259801223349 225.3811553437632 369.8075336985914
z" fill="none" stroke="none"></path>
<circle cx="0" cy="0" r="6.515475152579085" fill="#5c388e" opacity="0.9">
  <animateMotion begin="-9.606873070137349s" dur="13.040000000000001s" repeatCount="indefinite">
    <mpath xlink:href="#path74"></mpath>
  </animateMotion>
</circle><path id="path75" d="M 298.83747860549187 128.86969805232798
c 0 24.140091945928074 -5.906618242088784 6.93385619723466 -12.840474439323444 6.93385619723466
S 273.156529726845 153.00978999825605 273.156529726845 128.86969805232798
s 5.906618242088784 -6.93385619723466 12.840474439323444 -6.93385619723466
S 298.83747860549187 104.7296061063999 298.83747860549187 128.86969805232798
z" fill="none" stroke="none"></path>
<circle cx="0" cy="0" r="5.461005856665786" fill="#5c388e" opacity="0.9">
  <animateMotion begin="-6.76515623254411s" dur="13.040000000000001s" repeatCount="indefinite">
    <mpath xlink:href="#path75"></mpath>
  </animateMotion>
</circle><path id="path76" d="M 761.1655930382648 152.7885851031179
c 0 35.118692230197915 -8.592871503133532 10.087283938461104 -18.680155441594636 10.087283938461104
S 723.8052821550756 187.90727733331582 723.8052821550756 152.7885851031179
s 8.592871503133532 -10.087283938461104 18.680155441594636 -10.087283938461104
S 761.1655930382648 117.66989287291997 761.1655930382648 152.7885851031179
z" fill="none" stroke="none"></path>
<circle cx="0" cy="0" r="4.605481645162291" fill="#5c388e" opacity="0.9">
  <animateMotion begin="-12.359378900280108s" dur="13.040000000000001s" repeatCount="indefinite">
    <mpath xlink:href="#path76"></mpath>
  </animateMotion>
</circle><path id="path77" d="M 963.9706015912537 292.4391249021907
c 0 27.476971347459862 -6.723088733952944 7.892321557249109 -14.615410291202053 7.892321557249109
S 934.7397810088497 319.9160962496506 934.7397810088497 292.4391249021907
s 6.723088733952944 -7.892321557249109 14.615410291202053 -7.892321557249109
S 963.9706015912537 264.96215355473083 963.9706015912537 292.4391249021907
z" fill="none" stroke="none"></path>
<circle cx="0" cy="0" r="5.183104802609765" fill="#5c388e" opacity="0.9">
  <animateMotion begin="-10.532201773744642s" dur="13.040000000000001s" repeatCount="indefinite">
    <mpath xlink:href="#path77"></mpath>
  </animateMotion>
</circle><path id="path78" d="M 1176.409715984562 145.38802332198765
c 0 25.258900765513257 -6.180369336242604 7.2552161773282755 -13.43558551357088 7.2552161773282755
S 1149.53854495742 170.6469240875009 1149.53854495742 145.38802332198765
s 6.180369336242604 -7.2552161773282755 13.43558551357088 -7.2552161773282755
S 1176.409715984562 120.12912255647439 1176.409715984562 145.38802332198765
z" fill="none" stroke="none"></path>
<circle cx="0" cy="0" r="7.691539239929474" fill="#5c388e" opacity="0.9">
  <animateMotion begin="-0.5136382444904276s" dur="13.040000000000001s" repeatCount="indefinite">
    <mpath xlink:href="#path78"></mpath>
  </animateMotion>
</circle><path id="path79" d="M 684.4990145279565 821.1685807540507
c 0 18.89762154644471 -4.623886123066258 5.428040231425609 -10.051926354491867 5.428040231425609
S 664.3951618189727 840.0662023004954 664.3951618189727 821.1685807540507
s 4.623886123066258 -5.428040231425609 10.051926354491867 -5.428040231425609
S 684.4990145279565 802.270959207606 684.4990145279565 821.1685807540507
z" fill="none" stroke="none"></path>
<circle cx="0" cy="0" r="4.185561662292526" fill="#63488a" opacity="0.9">
  <animateMotion begin="-3.384517309181783s" dur="13.040000000000001s" repeatCount="indefinite">
    <mpath xlink:href="#path79"></mpath>
  </animateMotion>
</circle><path id="path80" d="M 1139.9231780287903 832.2589332706837
c 0 32.89661861840968 -8.049172640674708 9.449028752096398 -17.498201392771108 9.449028752096398
S 1104.9267752432481 865.1555518890933 1104.9267752432481 832.2589332706837
s 8.049172640674708 -9.449028752096398 17.498201392771108 -9.449028752096398
S 1139.9231780287903 799.362314652274 1139.9231780287903 832.2589332706837
z" fill="none" stroke="none"></path>
<circle cx="0" cy="0" r="6.911690241885462" fill="#5c388e" opacity="0.9">
  <animateMotion begin="-6.756594442104603s" dur="13.040000000000001s" repeatCount="indefinite">
    <mpath xlink:href="#path80"></mpath>
  </animateMotion>
</circle><path id="path81" d="M 1327.1168689911017 793.8752132032336
c 0 20.753482470304846 -5.077979753372461 5.961106667002456 -11.039086420374918 5.961106667002456
S 1305.038696150352 814.6286956735385 1305.038696150352 793.8752132032336
s 5.077979753372461 -5.961106667002456 11.039086420374918 -5.961106667002456
S 1327.1168689911017 773.1217307329287 1327.1168689911017 793.8752132032336
z" fill="none" stroke="none"></path>
<circle cx="0" cy="0" r="5.752856158666911" fill="#5c388e" opacity="0.9">
  <animateMotion begin="-10.82014867404798s" dur="13.040000000000001s" repeatCount="indefinite">
    <mpath xlink:href="#path81"></mpath>
  </animateMotion>
</circle><path id="path82" d="M 315.59477091507193 177.94751537079162
c 0 33.98951584443817 -8.316583664064659 9.76294604042373 -18.079529704488387 9.76294604042373
S 279.4357115060952 211.9370312152298 279.4357115060952 177.94751537079162
s 8.316583664064659 -9.76294604042373 18.079529704488387 -9.76294604042373
S 315.59477091507193 143.95799952635343 315.59477091507193 177.94751537079162
z" fill="none" stroke="none"></path>
<circle cx="0" cy="0" r="7.910049892940054" fill="#63488a" opacity="0.9">
  <animateMotion begin="-7.355832178659316s" dur="13.040000000000001s" repeatCount="indefinite">
    <mpath xlink:href="#path82"></mpath>
  </animateMotion>
</circle><path id="path83" d="M 774.6320033085938 839.6612765032748
c 0 32.562332222407335 -7.967379160801793 9.353010319202106 -17.3203894800039 9.353010319202106
S 739.991224348586 872.2236087256822 739.991224348586 839.6612765032748
s 7.967379160801793 -9.353010319202106 17.3203894800039 -9.353010319202106
S 774.6320033085938 807.0989442808675 774.6320033085938 839.6612765032748
z" fill="none" stroke="none"></path>
<circle cx="0" cy="0" r="7.122990891016253" fill="#5c388e" opacity="0.9">
  <animateMotion begin="-1.5010529171313924s" dur="13.040000000000001s" repeatCount="indefinite">
    <mpath xlink:href="#path83"></mpath>
  </animateMotion>
</circle><path id="path84" d="M 1217.3788948040324 545.2120094249127
c 0 19.319766002939108 -4.727176787953186 5.549294490205915 -10.2764712781591 5.549294490205915
S 1196.8259522477142 564.5317754278518 1196.8259522477142 545.2120094249127
s 4.727176787953186 -5.549294490205915 10.2764712781591 -5.549294490205915
S 1217.3788948040324 525.8922434219736 1217.3788948040324 545.2120094249127
z" fill="none" stroke="none"></path>
<circle cx="0" cy="0" r="6.777190406439038" fill="#63488a" opacity="0.9">
  <animateMotion begin="-3.0136601378874364s" dur="13.040000000000001s" repeatCount="indefinite">
    <mpath xlink:href="#path84"></mpath>
  </animateMotion>
</circle><path id="path85" d="M 715.0912629378026 905.1780954557639
c 0 27.698537815040158 -6.7773018058076975 7.955962989426429 -14.733264795234128 7.955962989426429
S 685.6247333473343 932.8766332708041 685.6247333473343 905.1780954557639
s 6.7773018058076975 -7.955962989426429 14.733264795234128 -7.955962989426429
S 715.0912629378026 877.4795576407238 715.0912629378026 905.1780954557639
z" fill="none" stroke="none"></path>
<circle cx="0" cy="0" r="7.599269016803181" fill="#63488a" opacity="0.9">
  <animateMotion begin="-8.410476726953064s" dur="13.040000000000001s" repeatCount="indefinite">
    <mpath xlink:href="#path85"></mpath>
  </animateMotion>
</circle><path id="path86" d="M 160.5889243185956 594.634532446415
c 0 24.93476578121425 -6.101059712424762 7.162113575455157 -13.26317328787992 7.162113575455157
S 134.06257774283577 619.5692982276292 134.06257774283577 594.634532446415
s 6.101059712424762 -7.162113575455157 13.26317328787992 -7.162113575455157
S 160.5889243185956 569.6997666652009 160.5889243185956 594.634532446415
z" fill="none" stroke="none"></path>
<circle cx="0" cy="0" r="6.343227137078259" fill="#63488a" opacity="0.9">
  <animateMotion begin="-9.174442927544803s" dur="13.040000000000001s" repeatCount="indefinite">
    <mpath xlink:href="#path86"></mpath>
  </animateMotion>
</circle><path id="path87" d="M 1068.1931223537956 912.9003609468564
c 0 29.265156766630835 -7.160623464175629 8.40594928403226 -15.56657274820789 8.40594928403226
S 1037.05997685738 942.1655177134872 1037.05997685738 912.9003609468564
s 7.160623464175629 -8.40594928403226 15.56657274820789 -8.40594928403226
S 1068.1931223537956 883.6352041802255 1068.1931223537956 912.9003609468564
z" fill="none" stroke="none"></path>
<circle cx="0" cy="0" r="6.709246752501547" fill="#63488a" opacity="0.9">
  <animateMotion begin="-11.388336249433342s" dur="13.040000000000001s" repeatCount="indefinite">
    <mpath xlink:href="#path87"></mpath>
  </animateMotion>
</circle><path id="path88" d="M 1581.9034586339044 835.1085291140506
c 0 27.27619381926778 -6.673962317480414 7.834651416172661 -14.508613733653075 7.834651416172661
S 1552.8862311665985 862.3847229333184 1552.8862311665985 835.1085291140506
s 6.673962317480414 -7.834651416172661 14.508613733653075 -7.834651416172661
S 1581.9034586339044 807.8323352947829 1581.9034586339044 835.1085291140506
z" fill="none" stroke="none"></path>
<circle cx="0" cy="0" r="4.770302425897683" fill="#5c388e" opacity="0.9">
  <animateMotion begin="-4.597083562153212s" dur="13.040000000000001s" repeatCount="indefinite">
    <mpath xlink:href="#path88"></mpath>
  </animateMotion>
</circle><path id="path89" d="M 1004.5659962898411 54.58002860262293
c 0 24.30646887674762 -5.947327491119097 6.9816453156615506 -12.928972806780648 6.9816453156615506
S 978.7080506762799 78.88649747937055 978.7080506762799 54.58002860262293
s 5.947327491119097 -6.9816453156615506 12.928972806780648 -6.9816453156615506
S 1004.5659962898411 30.273559725875312 1004.5659962898411 54.58002860262293
z" fill="none" stroke="none"></path>
<circle cx="0" cy="0" r="7.277141499001998" fill="#5c388e" opacity="0.9">
  <animateMotion begin="-5.805262899965376s" dur="13.040000000000001s" repeatCount="indefinite">
    <mpath xlink:href="#path89"></mpath>
  </animateMotion>
</circle><path id="path90" d="M 1784.164714019592 440.5908202144277
c 0 20.443371739909683 -5.002101595935347 5.87203230827193 -10.874133904207277 5.87203230827193
S 1762.4164462111773 461.0341919543374 1762.4164462111773 440.5908202144277
s 5.002101595935347 -5.87203230827193 10.874133904207277 -5.87203230827193
S 1784.164714019592 420.147448474518 1784.164714019592 440.5908202144277
z" fill="none" stroke="none"></path>
<circle cx="0" cy="0" r="6.056594630034143" fill="#5c388e" opacity="0.9">
  <animateMotion begin="-8.408466739092551s" dur="13.040000000000001s" repeatCount="indefinite">
    <mpath xlink:href="#path90"></mpath>
  </animateMotion>
</circle><path id="path91" d="M 1117.9779693503433 636.1628312328495
c 0 21.43059251238156 -5.243655614731657 6.155595721641512 -11.399251336373169 6.155595721641512
S 1095.1794666775968 657.593423745231 1095.1794666775968 636.1628312328495
s 5.243655614731657 -6.155595721641512 11.399251336373169 -6.155595721641512
S 1117.9779693503433 614.732238720468 1117.9779693503433 636.1628312328495
z" fill="none" stroke="none"></path>
<circle cx="0" cy="0" r="5.5511366964493" fill="#63488a" opacity="0.9">
  <animateMotion begin="-7.036480161526327s" dur="13.040000000000001s" repeatCount="indefinite">
    <mpath xlink:href="#path91"></mpath>
  </animateMotion>
</circle><path id="path92" d="M 403.61926635817304 685.9988958565398
c 0 24.954970638388247 -6.106003454073719 7.167917098260454 -13.273920552334173 7.167917098260454
S 377.0714252535047 710.953866494928 377.0714252535047 685.9988958565398
s 6.106003454073719 -7.167917098260454 13.273920552334173 -7.167917098260454
S 403.61926635817304 661.0439252181516 403.61926635817304 685.9988958565398
z" fill="none" stroke="none"></path>
<circle cx="0" cy="0" r="6.835847450793507" fill="#63488a" opacity="0.9">
  <animateMotion begin="-2.633428542664661s" dur="13.040000000000001s" repeatCount="indefinite">
    <mpath xlink:href="#path92"></mpath>
  </animateMotion>
</circle><path id="path93" d="M 59.76966685236694 410.1953040898549
c 0 25.00543292339186 -6.118350608915029 7.182411584378514 -13.300762193293544 7.182411584378514
S 33.16814246577985 435.2007370132468 33.16814246577985 410.1953040898549
s 6.118350608915029 -7.182411584378514 13.300762193293544 -7.182411584378514
S 59.76966685236694 385.18987116646304 59.76966685236694 410.1953040898549
z" fill="none" stroke="none"></path>
<circle cx="0" cy="0" r="7.1882101133324054" fill="#5c388e" opacity="0.9">
  <animateMotion begin="-5.930240984753997s" dur="13.040000000000001s" repeatCount="indefinite">
    <mpath xlink:href="#path93"></mpath>
  </animateMotion>
</circle><path id="path94" d="M 141.69414951888143 470.2209779671245
c 0 27.112792780049435 -6.633981212139755 7.787717075120583 -14.421698287260337 7.787717075120583
S 112.85075294436076 497.33377074717396 112.85075294436076 470.2209779671245
s 6.633981212139755 -7.787717075120583 14.421698287260337 -7.787717075120583
S 141.69414951888143 443.10818518707504 141.69414951888143 470.2209779671245
z" fill="none" stroke="none"></path>
<circle cx="0" cy="0" r="4.700491598128427" fill="#63488a" opacity="0.9">
  <animateMotion begin="-10.435630101830464s" dur="13.040000000000001s" repeatCount="indefinite">
    <mpath xlink:href="#path94"></mpath>
  </animateMotion>
</circle><path id="path95" d="M 1474.5517816068943 871.861604432032
c 0 35.38822057388057 -8.658819927651628 10.164701654199739 -18.823521581851367 10.164701654199739
S 1436.9047384431917 907.2498250059125 1436.9047384431917 871.861604432032
s 8.658819927651628 -10.164701654199739 18.823521581851367 -10.164701654199739
S 1474.5517816068943 836.4733838581515 1474.5517816068943 871.861604432032
z" fill="none" stroke="none"></path>
<circle cx="0" cy="0" r="5.555415130273158" fill="#63488a" opacity="0.9">
  <animateMotion begin="-0.23108434043238069s" dur="13.040000000000001s" repeatCount="indefinite">
    <mpath xlink:href="#path95"></mpath>
  </animateMotion>
</circle><path id="path96" d="M 99.87404383252573 101.07512785779902
c 0 23.822809472081552 -5.828985296360379 6.842721869640446 -12.671707166000825 6.842721869640446
S 74.53062950052407 124.89793732988056 74.53062950052407 101.07512785779902
s 5.828985296360379 -6.842721869640446 12.671707166000825 -6.842721869640446
S 99.87404383252573 77.25231838571747 99.87404383252573 101.07512785779902
z" fill="none" stroke="none"></path>
<circle cx="0" cy="0" r="4.89488286285061" fill="#5c388e" opacity="0.9">
  <animateMotion begin="-6.253401099559793s" dur="13.040000000000001s" repeatCount="indefinite">
    <mpath xlink:href="#path96"></mpath>
  </animateMotion>
</circle><path id="path97" d="M 398.3760330487084 281.0957626053031
c 0 20.201549156017485 -4.9429322403021505 5.802572629919917 -10.745504870222067 5.802572629919917
S 376.88502330826424 301.2973117613206 376.88502330826424 281.0957626053031
s 4.9429322403021505 -5.802572629919917 10.745504870222067 -5.802572629919917
S 398.3760330487084 260.8942134492856 398.3760330487084 281.0957626053031
z" fill="none" stroke="none"></path>
<circle cx="0" cy="0" r="5.321490897396637" fill="#5c388e" opacity="0.9">
  <animateMotion begin="-13.024895828508106s" dur="13.040000000000001s" repeatCount="indefinite">
    <mpath xlink:href="#path97"></mpath>
  </animateMotion>
</circle><path id="path98" d="M 707.5611412562525 30.176886668351734
c 0 21.73856673428636 -5.319011009453045 6.244056402401402 -11.563067411854446 6.244056402401402
S 684.4350064325436 51.91545340263809 684.4350064325436 30.176886668351734
s 5.319011009453045 -6.244056402401402 11.563067411854446 -6.244056402401402
S 707.5611412562525 8.438319934065376 707.5611412562525 30.176886668351734
z" fill="none" stroke="none"></path>
<circle cx="0" cy="0" r="7.412145573648255" fill="#63488a" opacity="0.9">
  <animateMotion begin="-0.352910046577911s" dur="13.040000000000001s" repeatCount="indefinite">
    <mpath xlink:href="#path98"></mpath>
  </animateMotion>
</circle><path id="path99" d="M 1799.2463273700378 175.81364221009306
c 0 20.56856349596031 -5.03273362135199 5.907991642456685 -10.940725263808675 5.907991642456685
S 1777.3648768424205 196.38220570605338 1777.3648768424205 175.81364221009306
s 5.03273362135199 -5.907991642456685 10.940725263808675 -5.907991642456685
S 1799.2463273700378 155.24507871413275 1799.2463273700378 175.81364221009306
z" fill="none" stroke="none"></path>
<circle cx="0" cy="0" r="4.564394399917999" fill="#63488a" opacity="0.9">
  <animateMotion begin="-2.253259970354685s" dur="13.040000000000001s" repeatCount="indefinite">
    <mpath xlink:href="#path99"></mpath>
  </animateMotion>
</circle></g>
</svg>