<svg width="273" height="141" viewBox="0 0 273 141" fill="none" xmlns="http://www.w3.org/2000/svg">
<path d="M22.1005 72L0.800537 1.99998H16.2005L27.6005 41.1C28.0672 42.5 28.4672 44.0333 28.8005 45.7C29.2005 47.3 29.5005 48.8666 29.7005 50.4C29.9672 51.8666 30.1672 53.2666 30.3005 54.6C30.5005 55.8666 30.6672 56.9333 30.8005 57.8L28.4005 57.7C29.0005 54.9 29.5005 52.5666 29.9005 50.7C30.3005 48.7666 30.6672 47.0666 31.0005 45.6C31.4005 44.0666 31.8672 42.5333 32.4005 41L43.4005 12.1H55.8005L66.6005 41C67.4005 43 68.0339 44.9333 68.5005 46.8C69.0339 48.6 69.4672 50.3666 69.8005 52.1C70.1339 53.7666 70.4672 55.4666 70.8005 57.2L68.6005 57.6C68.8005 56.2 68.9339 55 69.0005 54C69.1339 52.9333 69.2339 51.9666 69.3005 51.1C69.4339 50.2333 69.5672 49.3666 69.7005 48.5C69.8339 47.5666 70.0339 46.5 70.3005 45.3C70.5672 44.0333 70.9672 42.5666 71.5005 40.9L82.8005 1.99998H98.0005L76.5005 72H65.4005L48.1005 30.6L49.7005 30.8L33.6005 72H22.1005Z" fill="#5F3B92"></path>
<path d="M152.315 72V1.99998H167.315V72H152.315ZM108.215 72V1.99998H123.215V72H108.215ZM114.215 43.9L114.315 30.3H160.015V43.9H114.215Z" fill="#5F3B92"></path>
<path d="M216.558 73C211.425 73 206.692 72.1 202.358 70.3C198.025 68.5 194.225 66 190.958 62.8C187.758 59.5333 185.292 55.7 183.558 51.3C181.825 46.8333 180.958 42 180.958 36.8C180.958 31.5333 181.825 26.7333 183.558 22.4C185.292 18 187.758 14.1666 190.958 10.9C194.225 7.63331 198.025 5.09998 202.358 3.29998C206.692 1.49998 211.425 0.599976 216.558 0.599976C221.758 0.599976 226.492 1.49998 230.758 3.29998C235.092 5.09998 238.858 7.63331 242.058 10.9C245.325 14.1666 247.825 18 249.558 22.4C251.292 26.8 252.158 31.6 252.158 36.8C252.158 42 251.292 46.8 249.558 51.2C247.825 55.6 245.325 59.4333 242.058 62.7C238.858 65.9666 235.092 68.5 230.758 70.3C226.492 72.1 221.758 73 216.558 73ZM216.558 58.8C219.492 58.8 222.192 58.2666 224.658 57.2C227.192 56.1333 229.358 54.6 231.158 52.6C232.958 50.6 234.358 48.2666 235.358 45.6C236.425 42.9333 236.958 40 236.958 36.8C236.958 33.6 236.425 30.6666 235.358 28C234.358 25.3333 232.958 23.0333 231.158 21.1C229.358 19.1 227.192 17.5666 224.658 16.5C222.192 15.3666 219.492 14.8 216.558 14.8C213.625 14.8 210.925 15.3666 208.458 16.5C205.992 17.5666 203.825 19.1 201.958 21.1C200.092 23.0333 198.658 25.3333 197.658 28C196.725 30.6666 196.258 33.6 196.258 36.8C196.258 40 196.725 42.9333 197.658 45.6C198.658 48.2666 200.092 50.6 201.958 52.6C203.825 54.6 205.992 56.1333 208.458 57.2C210.925 58.2666 213.625 58.8 216.558 58.8Z" fill="#5F3B92"></path>
<path d="M6.4702 122L20.1702 87H26.8702L40.5202 122H32.8202L25.7702 103.15C25.5702 102.617 25.3202 101.933 25.0202 101.1C24.7535 100.267 24.4702 99.3833 24.1702 98.45C23.8702 97.5166 23.5869 96.6333 23.3202 95.8C23.0535 94.9333 22.8535 94.2166 22.7202 93.65L24.0702 93.6C23.8702 94.3666 23.6369 95.1666 23.3702 96C23.1369 96.8 22.8869 97.6333 22.6202 98.5C22.3535 99.3333 22.0702 100.15 21.7702 100.95C21.4702 101.75 21.1869 102.533 20.9202 103.3L13.8702 122H6.4702ZM12.8202 114.65L15.2702 108.6H31.3202L33.8202 114.65H12.8202Z" fill="#5F3B92"></path>
<path d="M45.4347 122V87H60.9347C63.1013 87 65.068 87.5 66.8347 88.5C68.6013 89.4666 69.9846 90.7833 70.9846 92.45C72.018 94.1166 72.5347 96.0166 72.5347 98.15C72.5347 100.25 72.018 102.167 70.9846 103.9C69.9846 105.6 68.6013 106.95 66.8347 107.95C65.068 108.95 63.1013 109.45 60.9347 109.45H52.6847V122H45.4347ZM65.2847 122L56.3847 106.2L64.0847 104.95L73.9846 122.05L65.2847 122ZM52.6847 103.35H60.5847C61.4847 103.35 62.268 103.15 62.9347 102.75C63.6347 102.317 64.168 101.733 64.5346 101C64.9013 100.233 65.0846 99.3833 65.0846 98.45C65.0846 97.45 64.868 96.5833 64.4347 95.85C64.0013 95.1166 63.368 94.55 62.5347 94.15C61.7013 93.7166 60.7347 93.5 59.6347 93.5H52.6847V103.35Z" fill="#5F3B92"></path>
<path d="M80.4444 122V87H104.094V93.6H87.7444V115.4H104.444V122H80.4444ZM83.9444 107.35V100.95H101.694V107.35H83.9444Z" fill="#5F3B92"></path>
<path d="M130.053 140L114.078 87.5H125.628L134.178 116.825C134.528 117.875 134.828 119.025 135.078 120.275C135.378 121.475 135.603 122.65 135.753 123.8C135.953 124.9 136.103 125.95 136.203 126.95C136.353 127.9 136.478 128.7 136.578 129.35L134.778 129.275C135.228 127.175 135.603 125.425 135.903 124.025C136.203 122.575 136.478 121.3 136.728 120.2C137.028 119.05 137.378 117.9 137.778 116.75L146.028 95.075H155.328L163.428 116.75C164.028 118.25 164.503 119.7 164.853 121.1C165.253 122.45 165.578 123.775 165.828 125.075C166.078 126.325 166.328 127.6 166.578 128.9L164.928 129.2C165.078 128.15 165.178 127.25 165.228 126.5C165.328 125.7 165.403 124.975 165.453 124.325C165.553 123.675 165.653 123.025 165.753 122.375C165.853 121.675 166.003 120.875 166.203 119.975C166.403 119.025 166.703 117.925 167.103 116.675L175.578 87.5H186.978L170.853 140H162.528L149.553 108.95L150.753 109.1L138.678 140H130.053Z" fill="#5F3B92"></path>
<path d="M194.638 140V87.5H230.113V97.4H205.588V130.1H230.638V140H194.638ZM199.888 118.025V108.425H226.513V118.025H199.888Z" fill="#5F3B92"></path>
<path d="M250.046 122.75L247.721 112.625C249.371 112.225 250.871 111.775 252.221 111.275C253.621 110.725 254.871 110.15 255.971 109.55C257.071 108.95 257.996 108.275 258.746 107.525C259.546 106.775 260.146 105.95 260.546 105.05C260.996 104.1 261.221 103.1 261.221 102.05C261.221 100.95 260.921 99.975 260.321 99.125C259.721 98.225 258.921 97.55 257.921 97.1C256.921 96.6 255.746 96.35 254.396 96.35C252.646 96.35 250.896 96.975 249.146 98.225C247.446 99.425 245.896 101.325 244.496 103.925L237.146 97.25C239.396 93.85 242.046 91.225 245.096 89.375C248.196 87.475 251.421 86.525 254.771 86.525C258.021 86.525 260.946 87.2 263.546 88.55C266.146 89.85 268.196 91.65 269.696 93.95C271.246 96.25 272.021 98.825 272.021 101.675C272.021 103.475 271.646 105.25 270.896 107C270.146 108.7 269.096 110.325 267.746 111.875C266.446 113.375 264.896 114.7 263.096 115.85C261.296 117 259.321 117.925 257.171 118.625L256.271 122.75H250.046ZM247.346 134.45C247.346 132.6 247.896 131.1 248.996 129.95C250.096 128.75 251.546 128.15 253.346 128.15C255.296 128.15 256.796 128.7 257.846 129.8C258.896 130.9 259.421 132.45 259.421 134.45C259.421 136.35 258.846 137.9 257.696 139.1C256.596 140.25 255.146 140.825 253.346 140.825C251.446 140.825 249.971 140.275 248.921 139.175C247.871 138.075 247.346 136.5 247.346 134.45Z" fill="#5F3B92"></path>
</svg>
